<svg xmlns="http://www.w3.org/2000/svg" viewBox="0 0 785.43 807.13"><defs><style>.cls-1{fill:none;stroke:#fff;stroke-miterlimit:10;stroke-width:3px;}.cls-2{font-size:60.23px;font-family:ClashDisplay-Semibold, Clash Display;font-weight:600;}.cls-2,.cls-3,.cls-4{fill:#fff;}.cls-3{font-size:90.35px;font-family:Montserrat-Bold, Montserrat;font-weight:700;}</style></defs><g id="Layer_2" data-name="Layer 2"><g id="Layer_1-2" data-name="Layer 1"><ellipse class="cls-1" cx="392.71" cy="403.57" rx="391.21" ry="402.07"/><ellipse class="cls-1" cx="392.71" cy="403.57" rx="294.76" ry="302.93"/><text class="cls-2" transform="translate(184.16 148.85) rotate(-36.79)">A</text><text class="cls-2" transform="matrix(0.87, -0.49, 0.49, 0.87, 220.21, 121.82)">N</text><text class="cls-2" transform="translate(257.19 101.86) rotate(-24.25)">I</text><text class="cls-2" transform="translate(267.43 95.92) rotate(-18.28)">M</text><text class="cls-2" transform="matrix(0.99, -0.16, 0.16, 0.99, 317.75, 79.39)">A</text><text class="cls-2" transform="translate(362.37 72.24) rotate(-2.16)">L</text><text class="cls-2" transform="translate(397.7 71.33) rotate(1.72)"> </text><text class="cls-2" transform="translate(405.53 70.95) rotate(5.91)">S</text><text class="cls-2" transform="translate(442.76 74.37) rotate(13.43)">A</text><text class="cls-2" transform="translate(486.64 85.01) rotate(20.8)">F</text><text class="cls-2" transform="translate(520.01 97.18) rotate(28.09)">A</text><text class="cls-2" transform="translate(559.79 118.46) rotate(35.6)">R</text><text class="cls-2" transform="matrix(0.76, 0.65, -0.65, 0.76, 592.07, 142.18)">I</text><text class="cls-3" transform="translate(434.62 723.67) rotate(179.05)">∞</text><path class="cls-4" d="M294,542c-1.2,2.12-2.9,2.12-4.88,2.12q-17.64,0-35.28,0-19.71,0-39.39-.05L180,544l-2.57,0c-1.61,0-2.07-.41-1.06-2,6.19-10,12.12-20.23,18-30.47,4.12-7.16,8.17-14.34,12.27-21.52,9.48-16.57,19.23-33,28.9-49.45a25.49,25.49,0,0,1,1.56-2.19c5.8,10,11.44,19.86,17.17,29.64a4.5,4.5,0,0,1,.05,5.23c-6.63,11.48-13,23.1-19.93,34.44a7.19,7.19,0,0,0-1.34,3.55h.26l-.16.3h42.64c1.29.18,2.37.55,2.76,1.31,5.06,9.53,9.57,14.11,15.23,23.31A5.07,5.07,0,0,1,294,542Z"/><path class="cls-4" d="M411.7,201.25l-7.38,12.8q-5.6,9.6-11.17,19.19-8.73,15-17.46,30.08c-.67,1.13-1.31,2.28-2,3.4q-9.6,16.54-19.19,33c-.78,1.33-1.57,2.67-2.33,4q-4.59,7.91-9.13,15.79a3.93,3.93,0,0,1-4.05,2.35c-5.34-.16-10.7-.07-16.07-.07V322c-5.36,0-10.7,0-16.06,0-.43,0-.94.12-1.4.12a1.21,1.21,0,0,1-1.2-.67c-.39-.85.55-1.54,1-2.28q4.46-7.67,8.9-15.35,10.68-18.42,21.38-36.88,9.6-16.54,19.19-33l5.14-8.86q7.14-12.31,14.29-24.67Q383,185,391.87,169.73c.32-.55.59-1,.82-1.38Z"/><path class="cls-4" d="M519.45,387.86c-.28,0-.56-.05-.81-.05-8.7.05-17.42,0-26.12,0H482.4q-19.41,0-38.78,0h-20c-1.33,0-3,.41-1.63-2q5.17-8.85,10.26-17.7,3.15-5.42,6.22-10.84a7.7,7.7,0,0,1,.69-1h25.06l-.67-1.13h1.22c-6.4-11.16-12.7-22.13-19-33.11-3.47-6.08-7-12.15-10.49-18.3-.56-1-1.13-1.95-1.68-2.94-.12-.19-.21-.37-.32-.55-.23.41-.47.82-.7,1.24l-1.26,2.25c-1.5,2.67-2.85,5.14-4.28,7.57l-6.21,10.73c-2.54,4.37-5.07,8.72-7.6,13.09-4.07,7-8.17,14.09-12.24,21.15q-3.5,6-6.93,11.94-5.87,10.08-11.69,20.21c-2.21,3.8-4.42,7.59-6.6,11.39q-6.08,10.5-12.13,21-5,8.73-10.08,17.49l-28.72,49.85c-3,5.22-6.07,10.37-9.16,15.55-.73,1.2-1.38,2.53-2.69.26q-9-15.75-18.06-31.44Q286.49,458,278,443.5c-1-1.65-1.93-3.29-2.88-4.94l.09-.19H275c-3.41-5.82-6.81-11.67-10.2-17.49L255.06,404v0c-3-5.17-6-10.37-8.95-15.55Q237,372.68,228,356.93a4.12,4.12,0,0,0-.5-.62h94.37a4.91,4.91,0,0,1-.51,1.08q-9,15.5-17.92,31.07c-2.83,5-5.69,9.89-8.54,14.84a3.66,3.66,0,0,0-.6,1.91v0a3.92,3.92,0,0,0,.65,2c2.67,4.56,5.31,9.12,8,13.67,3.29,5.69,6.56,11.39,9.87,17.08a3.09,3.09,0,0,1,.21.41c.2.51.41,1.06.94,1.24a1.43,1.43,0,0,0,.48.07c.88,0,1.11-.69,1.34-1.31a4.23,4.23,0,0,1,.23-.53q5-8.46,9.87-17c6.26-10.79,12.45-21.61,18.66-32.42s12.34-21.47,18.58-32.15q2.47-4.24,5-8.49c2.39-4.1,4.78-8.17,7.15-12.27,2.65-4.48,5.25-9,7.85-13.48q5.28-9.15,10.54-18.3h1.52l-.76-1.31q9.66-16.84,19.31-33.73,8.69-15.23,17.42-30.43c.34-.57.64-1.15,1-1.79L451.35,270l19.54,33.82,10.56,18.3,19.77,34.24Z"/><path class="cls-4" d="M609.61,544c-.28,0-.51,0-.74,0q-18.15,0-36.31,0H553.18v0h-19.4q-18,0-36,0a5,5,0,0,1-2.55-.53v0h0l-18.43-31.94-42.23-73.16-10.08-17.44.12-.05H455c1.64,0,3.25,0,4.88,0a3,3,0,0,1,2.92,1.77q4.69,7.8,9.21,15.69c7.5,13,14.79,26.17,22.32,39.21,6.12,10.57,12.29,21.13,18.36,31.74a3.23,3.23,0,0,0,2.12,1.82l.23.39h38.78l-.19-.32c1.36-.14,1.18-.67,0-2.63q-20.46-35.1-40.91-70.21l-8.7-14.93c-.41-.72-1.43-1.41-.92-2.24a1,1,0,0,1,.28-.32H538.5l10.1,17.49,42.23,73.16Z"/></g></g></svg>