<svg xmlns="http://www.w3.org/2000/svg" width="792.79" height="201.42" viewBox="0 0 792.79 201.42"><path d="M203.47,169.31l3.73-40.51H192l-3.74,40.51H173l3.77-40.51H161.55l-3.74,40.51H142.6l4.49-48.71a7.47,7.47,0,0,0-1.7-5.7,6.4,6.4,0,0,0-5.15-2.37H71.74l-6,64.91H81l5.28-56.84h15.21l-5.25,56.84H111.4l5.25-56.84h15.24l-5.28,56.84H187.5l-.75,8.09H156.3l-.75,8.13h38a7.81,7.81,0,0,0,5.59-2.37,9,9,0,0,0,2.77-5.76l.75-8.09h19.46l.76-8.13Z" fill="#fff"/><path d="M508,169.31l5.27-56.78H498.05l-5.24,56.78H447.15l1.51-16.22h30.45l.72-8.08q.36-4,.76-8.14a7.52,7.52,0,0,0-1.71-5.73,6.46,6.46,0,0,0-5.15-2.34H443.32a8,8,0,0,0-5.62,2.34,8.69,8.69,0,0,0-2.77,5.73l-3.12,32.44H416.57l5.25-56.78H406.61L405.1,128.8H382.29a8,8,0,0,0-5.62,2.34,8.73,8.73,0,0,0-2.77,5.73l-3,32.44H355.64l3-32.44a7.48,7.48,0,0,0-1.71-5.73,6.45,6.45,0,0,0-5.14-2.34H321.36a8,8,0,0,0-5.62,2.34,8.73,8.73,0,0,0-2.77,5.73l-3,32.44h-15.2l4.49-48.71a7.47,7.47,0,0,0-1.7-5.7,6.41,6.41,0,0,0-5.15-2.37h-68.5l-6,64.91h15.21l5.28-56.84h15.21l-5.25,56.84h15.21l5.24-56.84h15.24l-5.27,56.84h248l.72-8.13Zm-57.85-32.44h15.21l-.76,8.14h-15.2ZM340.4,169.31H325.2l3-32.44h15.21Zm60.93,0H386.12l3-32.44h15.21Z" fill="#9d9d9c"/><path d="M618.31,128.8H587.86l-3.74,40.51H568.91l2.63-28.39a7.57,7.57,0,0,0-1.73-5.74,6.4,6.4,0,0,0-5.13-2.4,7.85,7.85,0,0,0,5.58-2.35A8.84,8.84,0,0,0,573,124.7l.36-4.1a7.47,7.47,0,0,0-1.7-5.7,6.4,6.4,0,0,0-5.15-2.37h-38l-6,64.91h15.21l3.77-40.57h15.21L553,177.44h45.63l3.76-40.57h15.28Zm-60.87,0H542.23l.76-8.2H558.2Z" fill="#fff"/><polygon points="604.61 112.53 589.36 112.53 588.61 120.6 603.85 120.6 604.61 112.53" fill="#fff"/><path d="M690.87,169.31l1.51-16.22h30.45l.72-8.08q.36-4,.75-8.14a7.48,7.48,0,0,0-1.7-5.73,6.47,6.47,0,0,0-5.15-2.34H687a8,8,0,0,0-5.63,2.34,8.73,8.73,0,0,0-2.77,5.73l-3.11,32.44H660.29l5.25-56.78H650.33l-1.51,16.27H626a8,8,0,0,0-5.62,2.34,8.73,8.73,0,0,0-2.77,5.73l-3,32.44a7.42,7.42,0,0,0,1.68,5.76,6.49,6.49,0,0,0,5.16,2.37H735.77l.76-8.13Zm3-32.44h15.2l-.75,8.14H693.13Zm-48.84,32.44H629.84l3-32.44h15.21Z" fill="#fff"/><path d="M29.05,183.76q-1.9-7.56-4.43-14.92a96,96,0,0,0-6.05-14.26,36,36,0,0,0-2-3.26c-.73-1.06-1.5-2.14-2.19-3.26a27.29,27.29,0,0,1-3.31-7.28,19.23,19.23,0,0,1-.5-8.1A22.44,22.44,0,0,1,13.32,125,43.1,43.1,0,0,1,24,113.21a97,97,0,0,1,13.18-8.72,217.26,217.26,0,0,1,28.58-13q7.32-2.79,14.76-5.23c2.47-.84,5-1.59,7.49-2.38s5-1.47,7.58-2.11c5.07-1.35,10.19-2.49,15.35-3.48s10.33-1.84,15.54-2.5a249.91,249.91,0,0,1,31.42-2.06c5.26,0,10.51.15,15.77.48,2.63.17,5.25.38,7.88.65s5.22.57,8,1l-2.26.41c10-6.08,20.24-11.57,30.63-16.84s21-10.11,31.73-14.58q8.06-3.37,16.27-6.39t16.56-5.7a292.16,292.16,0,0,1,34-8.69L314,25.6c.36-.48.81-1.12,1.18-1.69s.76-1.18,1.09-1.76a15.83,15.83,0,0,0,.85-1.7,6.67,6.67,0,0,0,.43-1.27L318,17l2-.86c.61-.25,1-.39,1.48-.57l1.35-.47c.9-.29,1.79-.57,2.68-.82,1.77-.53,3.54-1,5.32-1.4,3.55-.85,7.11-1.51,10.67-2.09,7.13-1.15,14.28-1.91,21.43-2.37s14.3-.65,21.44-.63,14.27.24,21.38.64C434.19,10,462.36,14.28,490.15,20c13.93,2.91,27.6,6.08,41.41,8.91S559.15,34.49,573,37s27.72,4.77,41.65,6.71c7,1,13.93,1.85,21,2.76,3.52.47,7,.9,10.71,1.64A25.09,25.09,0,0,1,652.24,50a9.53,9.53,0,0,1,3.27,2.58,9.12,9.12,0,0,1,1.72,3.86l-3.65-2.76c1.4-.07,2.58-.07,3.85-.08l3.71,0c2.47.06,4.93.14,7.38.27,4.9.23,9.78.57,14.65,1s9.73.89,14.58,1.4,9.69,1.1,14.53,1.7h-.61q19.38-1.44,38.77-2.57l9.73-.5c1.62-.08,3.26-.13,4.9-.18.85,0,1.65,0,2.55,0a13.94,13.94,0,0,1,1.49.12A6.7,6.7,0,0,1,770,55a4.43,4.43,0,0,1,1.35.64,3.07,3.07,0,0,1,.93,1.11,2.94,2.94,0,0,1,.27,1.68,3.58,3.58,0,0,1-.73,1.68,7.41,7.41,0,0,1-1.29,1.26,23.65,23.65,0,0,1-2.27,1.52c-1.48.88-2.94,1.65-4.41,2.4-2.93,1.48-5.86,2.86-8.76,4.26l1.07-1.15a89.6,89.6,0,0,0-3.5,10.49,39.18,39.18,0,0,0-1,5.3,15.6,15.6,0,0,0-.1,2.53,5.49,5.49,0,0,0,.41,2,1.49,1.49,0,0,0,.35.5l1.11.92c.74.62,1.47,1.25,2.19,1.9q2.18,1.93,4.2,4a78.67,78.67,0,0,1,7.52,8.87A53.41,53.41,0,0,1,777,126a40.51,40.51,0,0,1,.53,11.68A42,42,0,0,1,774.7,149l-.48-1.13a16.43,16.43,0,0,1,4.75,3.51,12.84,12.84,0,0,1,3,5.08,12.22,12.22,0,0,1,.22,5.85,18.7,18.7,0,0,1-2,5.38,39.12,39.12,0,0,1-7,8.83,85.87,85.87,0,0,1-8.58,7.25,87,87,0,0,0,8.24-7.57,38.89,38.89,0,0,0,6.54-8.94A17.74,17.74,0,0,0,781,162.1a11,11,0,0,0-.4-5.23,13.16,13.16,0,0,0-7.12-7.38l-.76-.35.28-.78a40,40,0,0,0,2.3-10.84,38.14,38.14,0,0,0-.86-11,51.29,51.29,0,0,0-9.68-19.73,76.75,76.75,0,0,0-7.43-8.29q-2-1.94-4.14-3.73-1.07-.9-2.16-1.77l-1.1-.87a5.37,5.37,0,0,1-1.4-1.72,9.23,9.23,0,0,1-.89-3.48,19.55,19.55,0,0,1,0-3.16,43.36,43.36,0,0,1,1-5.91,87.38,87.38,0,0,1,3.42-11.18l.28-.75.78-.4c2.9-1.49,5.79-2.92,8.6-4.42,1.4-.75,2.78-1.52,4.07-2.33a19.08,19.08,0,0,0,1.73-1.21,3.18,3.18,0,0,0,.45-.43s-.11,0-.22.6a2,2,0,0,0,.19,1.09,1.87,1.87,0,0,0,.53.66,1.27,1.27,0,0,0,.25.15l-.28,0c-.25,0-.58,0-.92-.05l-2.3.07c-1.59.09-3.19.17-4.79.29l-9.65.71-19.31,1.63L712.17,64l-.28,0-.32,0q-7.22-.78-14.44-1.46c-4.82-.43-9.63-.84-14.45-1.15s-9.63-.59-14.43-.74c-2.41-.09-4.8-.13-7.19-.15l-3.57,0c-1.16,0-2.42.06-3.44.12l-2.95.19-.7-3a2.22,2.22,0,0,0-.4-.93,2.49,2.49,0,0,0-.89-.6,19.13,19.13,0,0,0-4.2-1.18c-3.24-.61-6.75-1-10.22-1.45-7-.83-14-1.64-21.05-2.56-14-1.82-28.06-4-42-6.36s-27.87-5-41.73-7.85-27.7-6-41.41-8.77A608.8,608.8,0,0,0,405.25,16.8c-7-.41-14-.67-20.94-.69s-13.94.11-20.87.54-13.84,1.14-20.66,2.21c-3.4.55-6.78,1.17-10.1,1.95-1.66.39-3.31.8-4.92,1.27-.81.23-1.6.48-2.39.73l-1.14.4c-.36.12-.79.29-1,.37l2.39-3.06a13.09,13.09,0,0,1-1,3.18,22.08,22.08,0,0,1-1.27,2.48c-.45.78-.91,1.51-1.4,2.22s-.95,1.38-1.54,2.15l-.93,1.21-1.53.28a281.57,281.57,0,0,0-33.18,8.13q-8.19,2.52-16.27,5.42t-16.06,6.13c-10.63,4.29-21.09,9-31.43,14S200.44,76.07,190.62,81.8l-1.08.63-1.18-.21c-2.37-.43-5-.78-7.48-1.08s-5.08-.54-7.63-.74c-5.1-.4-10.23-.62-15.36-.69a257.1,257.1,0,0,0-30.76,1.44q-7.66.8-15.26,2.12c-5.07.87-10.11,1.89-15.1,3.11-2.51.57-5,1.26-7.47,1.91s-4.94,1.4-7.41,2.18q-7.41,2.28-14.73,4.81a213.07,213.07,0,0,0-28.44,12,95.39,95.39,0,0,0-13,8.09,41.43,41.43,0,0,0-10.46,10.8A20.51,20.51,0,0,0,12.52,133a17.21,17.21,0,0,0,.21,7.35,25.66,25.66,0,0,0,2.89,6.95c.64,1.11,1.34,2.17,2.05,3.28A36.62,36.62,0,0,1,19.61,154a97.27,97.27,0,0,1,5.57,14.62Q27.43,176.13,29.05,183.76Z" fill="#fff"/><path d="M242.12,94a91.13,91.13,0,0,1,9.14-9.19c3.21-2.91,6.63-5.58,10.11-8.17a175.68,175.68,0,0,1,22.06-13.91,208.42,208.42,0,0,1,48.89-18.35,234.41,234.41,0,0,1,51.86-6.27A260.32,260.32,0,0,1,436,42.82l1.67.32.31,1.42A14.08,14.08,0,0,1,438.2,46c.06.44.08.85.12,1.28.05.83.09,1.66.08,2.48a41.2,41.2,0,0,1-.33,4.87A57.13,57.13,0,0,1,436,63.92l-.74,2.26c-.27.74-.57,1.47-.86,2.2-.54,1.48-1.24,2.89-1.88,4.32s-1.44,2.77-2.16,4.15-1.6,2.68-2.41,4l1.68-4.33c.49-1.47,1-2.92,1.47-4.38a73.38,73.38,0,0,0,2.18-8.89,54.2,54.2,0,0,0,.91-8.94c0-1.48-.05-3-.19-4.4-.06-.73-.17-1.44-.28-2.14-.07-.34-.12-.7-.2-1s-.17-.7-.23-.87l2,1.74a370.18,370.18,0,0,0-50.89-1.52,287.91,287.91,0,0,0-50.2,6.4,259.13,259.13,0,0,0-48.12,15.66,244.25,244.25,0,0,0-22.71,11.51A169.69,169.69,0,0,0,242.12,94Z" fill="#fff"/><path d="M452.63,46.86a232.23,232.23,0,0,1,27.11,1.88c9,1.11,18,2.68,26.86,4.61A266.89,266.89,0,0,1,533,60.48l6.5,2.18c2.15.78,4.28,1.62,6.42,2.42l3.21,1.23,3.16,1.36,6.31,2.75,15.76,6.87L557.07,78.5q-14.12,1-28.24,1.75c-9.42.47-18.85.93-28.28,1.23s-18.87.57-28.32.67-18.9.12-28.37-.21c9.34-1.61,18.71-2.8,28.08-4s18.76-2.21,28.15-3.17,18.79-1.8,28.19-2.6,18.8-1.47,28.22-2.09L555,78.11l-6.06-2.69-3-1.34-3.08-1.25-6.17-2.49L530.39,68c-2.08-.81-4.19-1.5-6.3-2.21s-4.2-1.49-6.33-2.15l-6.38-2c-2.12-.68-4.28-1.27-6.41-1.92q-12.87-3.8-26-7C470.29,50.59,461.49,48.68,452.63,46.86Z" fill="#fff"/></svg>