<svg xmlns="http://www.w3.org/2000/svg" width="792.79" height="201.42" viewBox="0 0 792.79 201.42"><path d="M203.47,169.31l3.73-40.51H192l-3.74,40.51H173l3.77-40.51H161.55l-3.74,40.51H142.6l4.49-48.71a7.47,7.47,0,0,0-1.7-5.7,6.4,6.4,0,0,0-5.15-2.37H71.74l-6,64.91H81l5.28-56.84h15.21l-5.25,56.84H111.4l5.25-56.84h15.24l-5.28,56.84H187.5l-.75,8.09H156.3l-.75,8.13h38a7.81,7.81,0,0,0,5.59-2.37,9,9,0,0,0,2.77-5.76l.75-8.09h19.46l.76-8.13Z" fill="#0647d4"/><path d="M508,169.31l5.27-56.78H498.05l-5.24,56.78H447.15l1.51-16.22h30.45l.72-8.08q.36-4,.76-8.14a7.52,7.52,0,0,0-1.71-5.73,6.46,6.46,0,0,0-5.15-2.34H443.32a8,8,0,0,0-5.62,2.34,8.69,8.69,0,0,0-2.77,5.73l-3.12,32.44H416.57l5.25-56.78H406.61L405.1,128.8H382.29a8,8,0,0,0-5.62,2.34,8.73,8.73,0,0,0-2.77,5.73l-3,32.44H355.64l3-32.44a7.48,7.48,0,0,0-1.71-5.73,6.45,6.45,0,0,0-5.14-2.34H321.36a8,8,0,0,0-5.62,2.34,8.73,8.73,0,0,0-2.77,5.73l-3,32.44h-15.2l4.49-48.71a7.47,7.47,0,0,0-1.7-5.7,6.41,6.41,0,0,0-5.15-2.37h-68.5l-6,64.91h15.21l5.28-56.84h15.21l-5.25,56.84h15.21l5.24-56.84h15.24l-5.27,56.84h248l.72-8.13Zm-57.85-32.44h15.21l-.76,8.14h-15.2ZM340.4,169.31H325.2l3-32.44h15.21Zm60.93,0H386.12l3-32.44h15.21Z" fill="#d49306"/><path d="M618.31,128.8H587.86l-3.74,40.51H568.91l2.63-28.39a7.57,7.57,0,0,0-1.73-5.74,6.4,6.4,0,0,0-5.13-2.4,7.85,7.85,0,0,0,5.58-2.35A8.84,8.84,0,0,0,573,124.7l.36-4.1a7.47,7.47,0,0,0-1.7-5.7,6.4,6.4,0,0,0-5.15-2.37h-38l-6,64.91h15.21l3.77-40.57h15.21L553,177.44h45.63l3.76-40.57h15.28Zm-60.87,0H542.23l.76-8.2H558.2Z" fill="#0647d4"/><polygon points="604.61 112.53 589.36 112.53 588.61 120.6 603.85 120.6 604.61 112.53" fill="#0647d4"/><path d="M690.87,169.31l1.51-16.22h30.45l.72-8.08q.36-4,.75-8.14a7.48,7.48,0,0,0-1.7-5.73,6.47,6.47,0,0,0-5.15-2.34H687a8,8,0,0,0-5.63,2.34,8.73,8.73,0,0,0-2.77,5.73l-3.11,32.44H660.29l5.25-56.78H650.33l-1.51,16.27H626a8,8,0,0,0-5.62,2.34,8.73,8.73,0,0,0-2.77,5.73l-3,32.44a7.42,7.42,0,0,0,1.68,5.76,6.49,6.49,0,0,0,5.16,2.37H735.77l.76-8.13Zm3-32.44h15.2l-.75,8.14H693.13Zm-48.84,32.44H629.84l3-32.44h15.21Z" fill="#0647d4"/><path d="M782,156.45a12.84,12.84,0,0,0-3-5.08,16.91,16.91,0,0,0-4-3.11,41.88,41.88,0,0,0,2.53-10.55A40.51,40.51,0,0,0,777,126a53.41,53.41,0,0,0-9.6-21.12A78.67,78.67,0,0,0,759.84,96q-2-2.07-4.2-4c-.72-.65-1.45-1.28-2.19-1.9l-1.11-.92a1.49,1.49,0,0,1-.35-.5,5.49,5.49,0,0,1-.41-2,15.6,15.6,0,0,1,.1-2.53,39.18,39.18,0,0,1,1-5.3,88.85,88.85,0,0,1,3.19-9.71c2.65-1.27,5.33-2.54,8-3.89,1.47-.75,2.93-1.52,4.41-2.4a23.65,23.65,0,0,0,2.27-1.52,7.41,7.41,0,0,0,1.29-1.26,3.58,3.58,0,0,0,.73-1.68,2.94,2.94,0,0,0-.27-1.68,3.07,3.07,0,0,0-.93-1.11A4.43,4.43,0,0,0,770,55a6.7,6.7,0,0,0-.92-.18,13.94,13.94,0,0,0-1.49-.12c-.9,0-1.7,0-2.55,0-1.64.05-3.28.1-4.9.18l-9.73.5Q731.2,56.48,712,57.92q-7.11-.89-14.25-1.67c-4.85-.51-9.71-1-14.58-1.4s-9.75-.75-14.65-1c-2.45-.13-4.91-.21-7.38-.27l-3.71,0h-1.24a7.32,7.32,0,0,0-.68-1A9.53,9.53,0,0,0,652.24,50a25.09,25.09,0,0,0-5.93-1.85c-3.68-.74-7.19-1.17-10.71-1.64-7-.91-14-1.78-21-2.76Q593.75,40.8,573,37c-13.84-2.51-27.65-5.26-41.43-8.11s-27.48-6-41.41-8.91c-27.79-5.7-56-10-84.42-11.58-7.11-.4-14.24-.64-21.38-.64s-14.29.16-21.44.63-14.3,1.22-21.43,2.37c-3.56.58-7.12,1.24-10.67,2.09-1.78.42-3.55.87-5.32,1.4-.89.25-1.78.53-2.68.82l-1.35.47c-.48.18-.87.32-1.48.57L318,17l-.36,2.21a6.67,6.67,0,0,1-.43,1.27,15.83,15.83,0,0,1-.85,1.7c-.33.58-.7,1.18-1.09,1.76-.11.17-.23.34-.34.52a290.25,290.25,0,0,0-32.42,8.36q-8.35,2.66-16.56,5.7t-16.27,6.39q-16.14,6.7-31.73,14.58c-10,5.09-19.88,10.4-29.6,16.24-2.29-.35-4.48-.61-6.73-.84-2.63-.27-5.25-.48-7.88-.65-5.26-.33-10.51-.48-15.77-.48a249.91,249.91,0,0,0-31.42,2.06q-7.81,1-15.54,2.5c-5.16,1-10.28,2.13-15.35,3.48-2.55.64-5.06,1.4-7.58,2.11s-5,1.54-7.49,2.38q-7.42,2.44-14.76,5.23a217.26,217.26,0,0,0-28.58,13A97,97,0,0,0,24,113.21,43.1,43.1,0,0,0,13.32,125a22.44,22.44,0,0,0-2.75,7.64,19.23,19.23,0,0,0,.5,8.1,27.29,27.29,0,0,0,3.31,7.28c.69,1.12,1.46,2.2,2.19,3.26a36,36,0,0,1,2,3.26,96,96,0,0,1,6.05,14.26q2.52,7.35,4.43,14.92-1.62-7.62-3.87-15.1A97.27,97.27,0,0,0,19.61,154a37.92,37.92,0,0,0-1.94-3.45c-.71-1.11-1.41-2.17-2.05-3.28a25.66,25.66,0,0,1-2.89-6.95,17.21,17.21,0,0,1-.21-7.35,20.51,20.51,0,0,1,2.72-6.84,41.43,41.43,0,0,1,10.46-10.8,95.39,95.39,0,0,1,13-8.09,213.07,213.07,0,0,1,28.44-12q7.32-2.53,14.73-4.81c2.47-.78,4.94-1.46,7.41-2.18s5-1.34,7.47-1.91c5-1.22,10-2.24,15.1-3.11s10.15-1.59,15.26-2.12a257.1,257.1,0,0,1,30.76-1.44c5.13.07,10.26.29,15.36.69,2.55.2,5.1.45,7.63.74s5.11.65,7.48,1.08l1.18.21,1.08-.63c9.82-5.73,20.07-11.06,30.38-16.07s20.8-9.72,31.43-14q8-3.24,16.06-6.13t16.27-5.42A281.57,281.57,0,0,1,317.94,32l1.53-.28.93-1.21c.59-.77,1.05-1.42,1.54-2.15s.95-1.44,1.4-2.22a22.08,22.08,0,0,0,1.27-2.48c.11-.24.21-.48.31-.73l.45-.16c.79-.25,1.58-.5,2.39-.73,1.61-.47,3.26-.88,4.92-1.27,3.32-.78,6.7-1.4,10.1-1.95,6.82-1.07,13.72-1.78,20.66-2.21s13.9-.58,20.87-.54,14,.28,20.94.69a608.8,608.8,0,0,1,83.24,11.34c13.71,2.81,27.55,6,41.41,8.77s27.77,5.46,41.73,7.85,28,4.54,42,6.36c7,.92,14.07,1.73,21.05,2.56,3.47.43,7,.84,10.22,1.45a19.13,19.13,0,0,1,4.2,1.18,2.49,2.49,0,0,1,.89.6,2.22,2.22,0,0,1,.4.93l.7,3,2.95-.19c1-.06,2.28-.1,3.44-.12l3.57,0c2.39,0,4.78.06,7.19.15,4.8.15,9.61.41,14.43.74s9.63.72,14.45,1.15,9.63.94,14.44,1.46l.32,0,.28,0,19.32-1.7,19.31-1.63,9.65-.71c1.29-.09,2.57-.16,3.85-.23-.84.48-1.69,1-2.56,1.43-2.81,1.5-5.7,2.93-8.6,4.42l-.78.4-.28.75a87.38,87.38,0,0,0-3.42,11.18,43.36,43.36,0,0,0-1,5.91,19.55,19.55,0,0,0,0,3.16,9.23,9.23,0,0,0,.89,3.48,5.37,5.37,0,0,0,1.4,1.72l1.1.87q1.09.87,2.16,1.77,2.13,1.8,4.14,3.73a76.75,76.75,0,0,1,7.43,8.29,51.29,51.29,0,0,1,9.68,19.73,38.14,38.14,0,0,1,.86,11,40,40,0,0,1-2.3,10.84l-.28.78.76.35a13.16,13.16,0,0,1,7.12,7.38,11,11,0,0,1,.4,5.23,17.74,17.74,0,0,1-1.71,5.15,38.89,38.89,0,0,1-6.54,8.94,87,87,0,0,1-8.24,7.57,85.87,85.87,0,0,0,8.58-7.25,39.12,39.12,0,0,0,7-8.83,18.7,18.7,0,0,0,2-5.38A12.22,12.22,0,0,0,782,156.45Z" fill="#0647d4"/><path d="M438.2,46a14.08,14.08,0,0,0-.24-1.39l-.31-1.42L436,42.82a260.32,260.32,0,0,0-51.8-4.71,233.82,233.82,0,0,0-51.86,6.27,208.42,208.42,0,0,0-48.89,18.35,175.68,175.68,0,0,0-22.06,13.91c-3.48,2.59-6.9,5.26-10.11,8.17A91.13,91.13,0,0,0,242.12,94a169.69,169.69,0,0,1,21.24-14.34,244.25,244.25,0,0,1,22.71-11.51,259.13,259.13,0,0,1,48.12-15.66,287.91,287.91,0,0,1,50.2-6.4,367.46,367.46,0,0,1,49.28,1.38l.06.3c.11.7.22,1.41.28,2.14.14,1.44.19,2.92.19,4.4a54.2,54.2,0,0,1-.91,8.94,73.38,73.38,0,0,1-2.18,8.89c-.46,1.46-1,2.91-1.47,4.38L428,80.85c.81-1.32,1.62-2.65,2.41-4s1.51-2.73,2.16-4.15,1.34-2.84,1.88-4.32c.29-.73.59-1.46.86-2.2l.74-2.26a57.13,57.13,0,0,0,2.06-9.34,41.2,41.2,0,0,0,.33-4.87c0-.82,0-1.65-.08-2.48C438.28,46.8,438.26,46.39,438.2,46Z" fill="#0647d4"/><path d="M552.27,67.67l-3.16-1.36-3.21-1.23c-2.14-.8-4.27-1.64-6.42-2.42L533,60.48a266.89,266.89,0,0,0-26.38-7.13c-8.9-1.93-17.85-3.5-26.86-4.61a232.23,232.23,0,0,0-27.11-1.88c8.86,1.82,17.66,3.73,26.38,5.88s17.38,4.45,26,7c2.13.65,4.29,1.24,6.41,1.92l6.38,2c2.13.66,4.22,1.44,6.33,2.15s4.22,1.4,6.3,2.21l6.25,2.32,2.36,1c-3.57.27-7.15.55-10.72.84-9.4.8-18.8,1.63-28.19,2.6s-18.77,2-28.15,3.17-18.74,2.43-28.08,4c9.47.33,18.92.25,28.37.21s18.89-.35,28.32-.67,18.86-.76,28.28-1.23,18.83-1.09,28.24-1.75l17.27-1.21-15.76-6.87Z" fill="#0647d4"/></svg>