<svg xmlns="http://www.w3.org/2000/svg" version="1.1" xmlns:xlink="http://www.w3.org/1999/xlink" xmlns:svgjs="http://svgjs.com/svgjs" width="1440" height="1000" preserveAspectRatio="none" viewBox="0 0 1440 1000"><g mask="url(&quot;#SvgjsMask1034&quot;)" fill="none"><rect width="1440" height="1000" x="0" y="0" fill="rgba(6, 71, 212, 1)"></rect><path d="M0,570.317C111.133,575.89,215.847,538.66,318.353,495.367C439.262,444.301,601.479,418.72,648.801,296.297C696.575,172.703,591.727,44.306,539.834,-77.616C500.062,-171.059,441.768,-248.881,381.857,-330.881C315.98,-421.046,266.997,-525.352,171.013,-582.418C59.557,-648.682,-72.446,-706.451,-198.462,-675.9C-325.594,-645.078,-428.608,-539.343,-487.814,-422.693C-541.791,-316.346,-483.042,-189.843,-504.687,-72.563C-527.68,52.025,-663.319,163.915,-617.902,282.186C-573.048,398.991,-411.873,411.558,-298.475,464.436C-200.821,509.972,-107.614,564.921,0,570.317" fill="#0539aa"></path><path d="M1440 1375.5439999999999C1517.524 1384.213 1601.858 1396.107 1668.392 1355.385 1735.272 1314.451 1754.288 1229.554 1791.3899999999999 1160.474 1831.341 1086.091 1908.2559999999999 1017.955 1894.353 934.674 1880.437 851.314 1788.8229999999999 807.996 1723.579 754.277 1668.499 708.9259999999999 1610.449 671.8679999999999 1543.905 646.131 1472.009 618.3240000000001 1392.891 568.152 1322.274 599.063 1250.839 630.332 1249.626 732.203 1203.551 795.115 1162.681 850.92 1077.686 878.025 1067.829 946.49 1057.972 1014.954 1125.2640000000001 1067.711 1155.337 1130.001 1184.601 1190.615 1191.267 1263.767 1242.234 1307.73 1296.096 1354.19 1369.31 1367.6390000000001 1440 1375.5439999999999" fill="#0d58f8"></path></g><defs><mask id="SvgjsMask1034"><rect width="1440" height="1000" fill="#ffffff"></rect></mask></defs></svg>